<svg width="186" height="36" viewBox="0 0 186 36" fill="none" xmlns="http://www.w3.org/2000/svg">
<g id="Vector">
<path d="M18.8444 28.3766C16.2833 28.3766 13.9442 27.4461 12.1258 25.9009H2.67552C5.60367 31.8852 11.7417 36 18.8444 36C25.947 36 32.0936 31.8852 35.0217 25.9009H25.5629C23.7531 27.4375 21.4054 28.3766 18.8444 28.3766Z" fill="#4CC2F1"/>
<path d="M87.515 4.52454H83.7502V25.824H87.515V4.52454Z" fill="#4CC2F1"/>
<path d="M18.8444 0C8.90744 0 0.848633 8.05881 0.848633 17.9957C0.848633 20.1043 1.21572 22.119 1.87306 23.9972H10.3929C9.18916 22.2983 8.47206 20.2324 8.47206 17.9957C8.47206 12.2675 13.1161 7.62343 18.8444 7.62343C24.5726 7.62343 29.2167 12.2675 29.2167 17.9957C29.2167 20.2324 28.4996 22.2983 27.2959 23.9972H35.8071C36.473 22.119 36.8316 20.0958 36.8316 17.9957C36.8486 8.05881 28.7813 0 18.8444 0Z" fill="#4CC2F1"/>
<path d="M59.7701 11.2175C57.8067 11.2431 55.9627 12.0626 54.8444 13.6761C54.3151 12.0455 52.9748 11.2175 50.8747 11.2175C48.7746 11.2175 46.777 12.4297 46.1794 13.2919V11.2175H42.4147V25.9009H46.1794V16.1091C46.7429 15.3066 47.8441 14.4188 49.1503 14.4188C50.6954 14.4188 51.2845 15.3664 51.2845 16.7067V25.9094H55.0834V16.0835C55.6212 15.3152 56.7139 14.4273 58.0457 14.4273C59.5909 14.4273 60.1799 15.3749 60.1799 16.7152V25.918H63.9788V15.4091C63.9788 12.4724 62.408 11.226 59.7701 11.226V11.2175Z" fill="#4CC2F1"/>
<path d="M73.8816 21.0349L70.1339 11.2431H66.096L71.9779 25.824L71.3888 26.8143C71.0303 27.5826 70.3815 27.8558 69.3997 27.8558C68.9985 27.8558 68.5887 27.7705 68.2131 27.6168L67.6497 30.9974C68.2643 31.1255 68.8875 31.1937 69.5193 31.2023C71.9779 31.1425 73.8816 30.434 74.9487 27.7363L81.5904 11.2175H77.5268L73.8816 21.0349Z" fill="#4CC2F1"/>
<path d="M117.829 21.1117C117.044 22.119 115.84 22.7166 114.568 22.7422C112.963 22.7422 111.93 22.0849 111.93 20.1043V11.2345H108.166V21.5812C108.166 24.3728 109.651 25.9094 112.793 25.9094C114.705 25.9436 116.54 25.3374 117.838 23.9289V25.8923H121.603V11.226H117.838V21.1032L117.829 21.1117Z" fill="#4CC2F1"/>
<path d="M133.93 11.2175C132.009 11.1918 130.182 11.8492 128.919 13.2919V11.2431H125.146V25.9009H128.919V16.1091C129.67 15.059 130.891 14.4359 132.18 14.4188C133.776 14.4188 134.818 15.1017 134.818 17.0908V25.935H138.591V15.6396C138.591 12.8565 137.08 11.226 133.939 11.226L133.93 11.2175Z" fill="#4CC2F1"/>
<path d="M152.02 13.2407C150.97 11.8577 149.339 11.2089 147.598 11.2175C143.944 11.2175 141.246 13.898 141.246 18.5848C141.246 23.2715 143.978 25.9265 147.598 25.9265C149.33 25.9265 150.952 25.2862 152.02 23.9203V25.9094H155.819V4.64406H152.02V13.2492V13.2407ZM152.02 21.1032C151.243 22.119 150.039 22.7252 148.75 22.7337C146.616 22.7337 145.13 21.0434 145.13 18.5848C145.13 16.1262 146.616 14.4017 148.75 14.4017C150.039 14.4102 151.234 15.0164 152.02 16.0323V21.1032Z" fill="#4CC2F1"/>
<path d="M100.892 13.2834C99.8422 11.9004 98.2032 11.2175 96.4702 11.2175C92.8164 11.2175 90.1187 13.9322 90.1187 18.6189C90.1187 23.3057 92.8505 25.935 96.4702 25.935C98.2032 25.935 99.8252 25.3204 100.892 23.9545V25.918H104.683V11.2431H100.892V13.2834ZM100.892 21.1458C100.115 22.1617 98.9117 22.7678 97.6312 22.7764C95.497 22.7764 94.0115 21.0861 94.0115 18.6275C94.0115 16.1688 95.497 14.4444 97.6312 14.4444C98.9117 14.4444 100.115 15.059 100.892 16.0749V21.1458Z" fill="#4CC2F1"/>
<path d="M163.015 11.2431H159.25V25.935H163.015V16.2884C163.638 15.3664 165.303 14.692 166.549 14.692C166.899 14.6834 167.241 14.709 167.582 14.7773V11.226C165.798 11.2857 164.133 11.9943 163.015 13.3858V11.2431Z" fill="#4CC2F1"/>
<path d="M181.088 11.2175L177.442 21.0349L173.695 11.2431H169.657L175.547 25.824L174.95 26.8143C174.6 27.5826 173.942 27.8558 172.961 27.8558C172.559 27.8558 172.158 27.7705 171.774 27.6168L171.21 30.9974C171.825 31.1255 172.457 31.1937 173.08 31.2023C175.539 31.1425 177.442 30.434 178.51 27.7363L185.151 11.2175H181.088Z" fill="#4CC2F1"/>
</g>
</svg>
