<?xml version="1.0" encoding="UTF-8"?>
<svg version="1.1" viewBox="0 0 2000 2000" width="1280" height="1280" xmlns="http://www.w3.org/2000/svg">
<path transform="translate(0)" d="m0 0h2e3v2e3h-2e3z" fill="#0F0617"/>
<path transform="translate(737,536)" d="m0 0h6l6 4 12 12 7 8 11 11 7 8 7 7 7 8 8 8 7 8 63 67 11 12 32 34 7 7 7 8 14 15 32 34 28 30 12 13 10 10 7 8 7 7 7 8 11 11 7 8 3 3v2h2v-167l-4-13-6-11-9-9-10-6-12-3-26-2v-7l1-1 21-1h145l7 1v7l-1 1-24 2-13 4-9 6-6 5-7 10-5 13-1 6v208l4 6 11 11 7 8 10 10 7 8 9 9 7 8 46 49 7 7 7 8 9 9 2 1-1-3-1-149v-305l-4-14-7-12-10-10-13-7-13-3-14-1h-10l-1-1v-8l1-1h186l1 1v8l-6 1-19 1-12 3-11 6-10 9-6 8-5 10-3 16v482l1 35 4 46 2 15v10h-7l-8-7-8-8-7-8-16-17-12-13-9-9-7-8-8-8-7-8-16-17-14-15-8-8-7-8-7-7-7-8-15-16-6-6v-2h-2l-4-5v167l2 31 4 38v9h-6l-6-4-7-8-7-7-7-8-7-7-7-8-8-8-7-8-10-10-7-8-16-17-30-32-7-7-7-8-45-48-7-7-7-8-29-31-7-7-7-8-8-8-7-8-16-17-7-7-7-8-8-8-7-8-7-7-7-8-16-17-3-3v49l4 10 1 13-2 12-2 3-1 5v120l3 12 6 11 8 9 10 7 9 4 10 2 25 2 1 1v7l-1 1h-187v-9l1-1h14l16-2 11-4 10-6 9-9 6-10 4-15v-114l-8-7-5-8-2-6v-15l4-10 7-8 4-2v-90l-12-13-14-15-6-6v-2h-2l-7-8-16-17-11-12-8-8-7-8-2-2v421l3 14 7 12 8 8 12 7 13 3 21 1 2 1 1 5-2 3h-170l-3-1-1-4 1-3 2-1 21-1 13-3 11-6 11-11 6-12 2-9v-480l-2-32-3-30v-8l3-1 6 3 10 9 11 12 9 9 7 8 7 7 7 8 48 51 7 7 7 8 11 11-1-171-2-30-4-40z" fill="#fff"/>
<path transform="translate(787,673)" d="m0 0 4 2 12 13 9 9 7 8 8 8 7 8 8 8 7 8 7 7 7 8 8 8 7 8 9 9 7 8 8 8 7 8 15 16 7 7 7 8 8 8 7 8 8 8 7 8 30 32 8 8 7 8 8 8 7 8 14 15 16 17 8 8 7 8 3 4v162l-7-6-9-10-12-12-7-8-9-9-7-8-31-33-7-7-7-8-8-8-7-8-47-50-3-3v-2h-2l-7-8-16-17-15-16-7-7-7-8-16-17-28-30-9-9-7-8-13-14-1-3z" fill="#0F0617"/>
<path transform="translate(1055,455)" d="m0 0h19l13 4 9 6 7 6 6 9 4 9 2 8v15l-3 12-5 10-9 10-11 7-11 4-6 1h-10l-14-3-11-6-9-8-7-11-4-11-1-16 2-13 5-10 8-10 11-8 10-4z" fill="#fff"/>
<path transform="translate(786,1300)" d="m0 0h15l10 3 11 7 7 7 6 12 1 4v18l-3 10-7 11-10 8-10 4-7 1h-12l-12-3-10-7-8-9-5-11-1-6v-14l3-10 6-10 9-8 9-5z" fill="#fff"/>
</svg>
